# AST/ASF file generated using VICON BodyLanguage
# -----------------------------------------------
:version 1.10
:name VICON
:units
  mass 1.0
  length 0.45
  angle deg
:documentation
   .ast/.asf automatically generated from VICON data using
   VICON BodyBuilder and BodyLanguage model FoxedUp or BRILLIANT.MOD
:root
   order TX TY TZ RX RY RZ
   axis XYZ
   position 0 0 0  
   orientation 0 0 0 
:bonedata
  begin
     id 1 
     name lhipjoint
     direction 0.627457 -0.725269 0.283342 
     length 2.53237 
     axis 0 0 0  XYZ
  end
  begin
     id 2 
     name lfemur
     direction 0.34202 -0.939693 0  
     length 7.32496  
     axis 0 0 20  XYZ
    dof rx ry rz
    limits (-160.0 20.0)
           (-70.0 70.0)
           (-60.0 70.0)
  end
  begin
     id 3 
     name ltibia
     direction 0.34202 -0.939693 0   
     length 7.69674   
     axis 0 0 20   XYZ
    dof rx
    limits (-10.0 170.0)
  end
  begin
     id 4 
     name lfoot
     direction 0.127289 -0.349722 0.928166   
     length 1.8612   
     axis -90 7.62852e-016 20   XYZ
    dof rx rz
    limits (-45.0 90.0)
           (-70.0 20.0)
  end
  begin
     id 5 
     name ltoes
     direction 1.53561e-011 -4.21864e-011 1   
     length 0.925608   
     axis -90 7.62852e-016 20   XYZ
    dof rx
    limits (-90.0 20.0)
  end
  begin
     id 6 
     name rhipjoint
     direction -0.609094 -0.738725 0.288599   
     length 2.48624  
     axis 0 0 0  XYZ 
  end
  begin
     id 7 
     name rfemur
     direction -0.34202 -0.939693 0   
     length 7.44259   
     axis 0 0 -20   XYZ
    dof rx ry rz
    limits (-160.0 20.0)
           (-70.0 70.0)
           (-70.0 60.0)
  end
  begin
     id 8 
     name rtibia
     direction -0.34202 -0.939693 0   
     length 7.7781   
     axis 0 0 -20   XYZ
    dof rx
    limits (-10.0 170.0)
 end
 begin
     id 9 
     name rfoot
     direction -0.107015 -0.294021 0.949789   
     length 2.14741  
     axis -90 -7.62852e-016 -20   XYZ
    dof rx rz
    limits (-45.0 90.0)
           (-20.0 70.0)
  end
  begin
     id 10 
     name rtoes
     direction -1.53497e-011 -4.21924e-011 1   
     length 1.0706   
     axis -90 -7.62852e-016 -20   XYZ
    dof rx
    limits (-90.0 20.0)
  end
  begin
     id 11 
     name lowerback
     direction -0.0142066 0.998112 -0.0597545   
     length 1.86627   
     axis 0 0 0   XYZ
    dof rx ry rz
    limits (-20.0 45.0)
           (-30.0 30.0)
           (-30.0 30.0)
  end
  begin
     id 12 
     name upperback
     direction 0.00547294 0.999744 0.0219437   
     length 1.86272   
     axis 0 0 0   XYZ
    dof rx ry rz
    limits (-20.0 45.0)
           (-30.0 30.0)
           (-30.0 30.0)
  end
  begin
     id 13 
     name thorax
     direction 0.0116162 0.998704 0.0495538   
     length 1.8703   
     axis 0 0 0   XYZ
    dof rx ry rz
    limits (-20.0 45.0)
           (-30.0 30.0)
           (-30.0 30.0)
  end
  begin
     id 14 
     name lowerneck
     direction -0.0106574 0.998739 0.0490586   
     length 1.8074   
     axis 0 0 0   XYZ
    dof rx ry rz
    limits (-20.0 45.0)
           (-30.0 30.0)
           (-30.0 30.0)
  end
  begin
     id 15 
     name upperneck
     direction 0.030527 0.976587 -0.212944   
     length 1.80681   
     axis 0 0 0   XYZ
    dof rx ry rz
    limits (-20.0 45.0)
           (-30.0 30.0)
           (-30.0 30.0)
  end
  begin
     id 16
     name head
     direction 0.00869225 0.997035 -0.0764531  
     length 1.8313  
     axis 0 0 0   XYZ
    dof rx ry rz
    limits (-20.0 45.0)
           (-30.0 30.0)
           (-30.0 30.0)
  end
  begin
     id 17 
     name lclavicle
     direction 0.915958 0.399447 0.0382386  
     length 3.78965  
     axis 0 0 0   XYZ
    dof ry rz
    limits (-20.0 10.0)
           (0.0 20.0)
  end
  begin
     id 18 
     name lhumerus
     direction 1 -4.48967e-011 3.19303e-027   
     length 4.78095   
     axis -180 -30 -90   XYZ
    dof rx ry rz
    limits (-60.0 90.0)
           (-90.0 90.0)
           (-90.0 90.0)
  end
  begin
     id 19
     name lradius
     direction 1 -4.48967e-011 -3.77974e-027   
     length 3.58615   
     axis -180 -30 -90   XYZ
    dof rx
    limits (-10.0 170.0)
  end
  begin
     id 20
     name lwrist
     direction 1 -4.48927e-011 1.2807e-027   
     length 1.79307   
     axis 1.91374e-015 90 90   XYZ
    dof ry
    limits (-180.0 0.0)
 end
  begin
     id 21 
     name lhand
     direction 1 -4.49036e-011 2.5614e-027   
     length 0.659812   
     axis -1.63439e-015 90 90   XYZ
    dof rx rz
    limits (-90.0 90.0)
           (-45.0 45.0)
  end
  begin
     id 22 
     name lfingers
     direction 1 -4.49052e-011 5.1228e-027   
     length 0.531957   
     axis -3.26879e-015 90 90   XYZ
    dof rx
    limits (0.0 90.0)
  end
  begin
     id 23
     name lthumb
     direction 0.707107 -6.35012e-011 0.707107   
     length 0.763787   
     axis -90 45 2.85299e-015   XYZ
    dof rx rz
    limits (-45.0 45.0)
           (-45.0 45.0)
  end
  begin
     id 24 
     name rclavicle
     direction -0.895351 0.435135 0.0948887   
     length 3.70497  
     axis 0 0 0   XYZ 
    dof ry rz
    limits (-10.0 20.0)
           (-20.0 0.0)
  end
  begin
     id 25 
     name rhumerus
     direction -1 -4.48971e-011 2.38946e-027  
     length 4.48913   
     axis -180 30 90   XYZ
    dof rx ry rz
    limits (-90.0 60.0)
           (-90.0 90.0)
           (-90.0 90.0)
  end
  begin
     id 26 
     name rradius
     direction -1 -4.4895e-011 4.38668e-027   
     length 3.7051   
     axis -180 30 90   XYZ
    dof rx
    limits (-10.0 170.0)
  end
  begin
     id 27 
     name rwrist
     direction -1 -4.49007e-011 1.2807e-027   
     length 1.85255   
     axis 1.91374e-015 -90 -90   XYZ
    dof ry
    limits (-180.0 0.0)
  end
  begin
     id 28
     name rhand
     direction -1 -4.48851e-011 2.5614e-027   
     length 0.449136   
     axis -1.63439e-015 -90 -90   XYZ
    dof rx rz
    limits (-90.0 90.0)
           (-45.0 45.0)
  end
  begin
     id 29
     name rfingers
     direction -1 -4.49128e-011 5.1228e-027   
     length 0.362105   
     axis -3.26879e-015 -90 -90   XYZ
    dof rx
    limits (0.0 90.0)
  end
  begin
     id 30
     name rthumb
     direction -0.707107 -6.34851e-011 0.707107   
     length 0.519912   
     axis -90 -45 -2.85299e-015   XYZ
    dof rx rz
    limits (-45.0 45.0)
           (-45.0 45.0)
  end
:hierarchy
  begin
    root lhipjoint rhipjoint lowerback
    lhipjoint lfemur
    lfemur ltibia
    ltibia lfoot
    lfoot ltoes
    rhipjoint rfemur
    rfemur rtibia
    rtibia rfoot
    rfoot rtoes
    lowerback upperback
    upperback thorax
    thorax lowerneck lclavicle rclavicle
    lowerneck upperneck
    upperneck head
    lclavicle lhumerus
    lhumerus lradius
    lradius lwrist
    lwrist lhand lthumb
    lhand lfingers
    rclavicle rhumerus
    rhumerus rradius
    rradius rwrist
    rwrist rhand rthumb
    rhand rfingers
  end

#!OML:ASF I:\Actors\actors\Patient Classification 2\Patient 1\Session 1\actor1.ASF
:FULLY-SPECIFIED
:DEGREES
28
root -0.658502 18.6849 5.66051 2.29368 -4.72059 -1.11754
lowerback -0.578921 1.35258 -0.542879
upperback -2.80896 1.80053 0.0731584
thorax -2.57494 0.912453 0.348429
lowerneck -9.25686 -2.1462 -2.46098
upperneck 26.5497 -3.4114 3.12761
head 10.0431 -1.48265 1.13475
rclavicle -9.3553e-015 -1.78906e-015
rhumerus -50.5189 -7.1352 -83.2704
rradius 43.1442
rwrist 21.7395
rhand -5.09094 -28.5823
rfingers 7.12502
rthumb 20.706 -57.4977
lclavicle -9.3553e-015 -1.78906e-015
lhumerus -44.3147 1.91844 88.3569
lradius 36.7684
lwrist -10.6877
lhand -1.71206 -27.5428
lfingers 7.12502
lthumb 23.9495 0.983451
rfemur 0 0 0
rtibia 0
rfoot 0 0
rtoes 0
lfemur -3.38184 -8.20621 -14.0529
ltibia 20.315
lfoot -26.0116 19.4328
ltoes -53.8114
29
root -0.658655 18.6855 5.6605 2.29418 -4.7303 -1.12591
lowerback -0.586558 1.34444 -0.552642
upperback -2.8075 1.78954 0.0693911
thorax -2.5692 0.907122 0.350441
lowerneck -9.2579 -2.13754 -2.38672
upperneck 26.5592 -3.40177 3.07989
head 10.0442 -1.47619 1.10633
rclavicle -4.34841e-016 -1.39149e-015
rhumerus -50.5067 -7.14487 -83.289
rradius 43.1176
rwrist 21.7617
rhand -5.07432 -28.5027
rfingers 7.12502
rthumb 20.722 -57.4164
lclavicle -4.34841e-016 -1.39149e-015
lhumerus -44.3237 1.89511 88.3464
lradius 36.8028
lwrist -10.642
lhand -1.731 -27.5471
lfingers 7.12502
lthumb 23.9314 0.981535
rfemur 0 0 0
rtibia 0
rfoot 0 0
rtoes 0
lfemur -3.38988 -8.12479 -14.0344
ltibia 20.3247
lfoot -25.9687 19.4235
ltoes -53.8989
30
root -0.658668 18.6852 5.66015 2.29457 -4.75154 -1.15124
lowerback -0.5906 1.34215 -0.53677
upperback -2.80687 1.7865 0.0628388
thorax -2.56553 0.905144 0.335025
lowerneck -9.25242 -2.12729 -2.31587
upperneck 26.568 -3.39337 3.0476
head 10.0441 -1.46899 1.08386
rclavicle -2.45251e-014 -2.78299e-015
rhumerus -50.5036 -7.16561 -83.3042
rradius 43.104
rwrist 21.8105
rhand -4.93587 -28.4401
rfingers 7.12502
rthumb 20.855 -57.3392
lclavicle -2.45251e-014 -2.78299e-015
lhumerus -44.3279 1.90459 88.308
lradius 36.8198
lwrist -10.6437
lhand -1.77402 -27.5925
lfingers 7.12502
lthumb 23.8901 0.941618
rfemur 0 0 0
rtibia 0
rfoot 0 0
rtoes 0
lfemur -3.39385 -8.08358 -14.0034
ltibia 20.3343
lfoot -25.9636 19.4399
ltoes -53.9812
31
root -0.658674 18.6849 5.65991 2.29345 -4.76461 -1.15788
lowerback -0.576909 1.3403 -0.549307
upperback -2.82209 1.78381 0.0625397
thorax -2.58928 0.904155 0.341172
lowerneck -9.22696 -2.11824 -2.27674
upperneck 26.5876 -3.38239 3.02085
head 10.0447 -1.46323 1.06931
rclavicle -6.07536e-015 -2.98177e-015
rhumerus -50.5454 -7.19706 -83.2766
rradius 43.1054
rwrist 21.8514
rhand -4.77116 -28.3877
rfingers 7.12502
rthumb 21.0133 -57.2693
lclavicle -6.07536e-015 -2.98177e-015
lhumerus -44.3552 1.92775 88.2804
lradius 36.8322
lwrist -10.654
lhand -1.8041 -27.5819
lfingers 7.12502
lthumb 23.8613 0.955966
rfemur 0 0 0
rtibia 0
rfoot 0 0
rtoes 0
lfemur -3.39097 -8.09634 -14.0002
ltibia 20.3377
lfoot -25.977 19.4416
ltoes -53.973
32
root -0.658532 18.6848 5.65988 2.29147 -4.76957 -1.15247
lowerback -0.56563 1.33434 -0.572384
upperback -2.83053 1.77565 0.0670682
thorax -2.60509 0.900716 0.358428
lowerneck -9.22287 -2.10852 -2.28646
upperneck 26.6077 -3.37032 3.03155
head 10.0512 -1.45737 1.07625
rclavicle -1.08462e-014 -9.74045e-015
rhumerus -50.5839 -7.20976 -83.2534
rradius 43.1322
rwrist 21.8642
rhand -4.6685 -28.3659
rfingers 7.12502
rthumb 21.1119 -57.2365
lclavicle -1.08462e-014 -9.74045e-015
lhumerus -44.3676 1.97681 88.2621
lradius 36.8359
lwrist -10.6822
lhand -1.78945 -27.5556
lfingers 7.12502
lthumb 23.8753 0.980428
rfemur 0 0 0
rtibia 0
rfoot 0 0
rtoes 0
lfemur -3.38704 -8.11961 -14.0108
ltibia 20.3376
lfoot -25.9982 19.4248
ltoes -53.9091
33
root -0.658222 18.6848 5.66004 2.28712 -4.77565 -1.15676
lowerback -0.57429 1.33866 -0.550824
upperback -2.81877 1.78135 0.0513928
thorax -2.58698 0.902802 0.330625
lowerneck -9.24574 -2.11509 -2.29213
upperneck 26.6195 -3.38611 3.05962
head 10.0611 -1.46179 1.08512
rclavicle -6.16232e-015 3.97569e-015
rhumerus -50.6033 -7.23135 -83.2652
rradius 43.1742
rwrist 21.8863
rhand -4.63544 -28.3496
rfingers 7.12502
rthumb 21.1436 -57.2166
lclavicle -6.16232e-015 3.97569e-015
lhumerus -44.3027 2.01508 88.2258
lradius 36.7742
lwrist -10.7109
lhand -1.74393 -27.5677
lfingers 7.12502
lthumb 23.919 0.962549
rfemur 0 0 0
rtibia 0
rfoot 0 0
rtoes 0
lfemur -3.37725 -8.13335 -14.01
ltibia 20.3366
lfoot -26.0209 19.4406
ltoes -53.8851
34
root -0.657917 18.6848 5.65995 2.28338 -4.77231 -1.16237
lowerback -0.592107 1.33719 -0.533905
upperback -2.79826 1.77953 0.0447244
thorax -2.55506 0.901325 0.315159
lowerneck -9.27456 -2.11802 -2.27867
upperneck 26.6171 -3.39028 3.05158
head 10.0655 -1.46299 1.07919
rclavicle -8.53532e-015 3.97569e-016
rhumerus -50.5935 -7.26374 -83.2508
rradius 43.1726
rwrist 21.9667
rhand -4.67372 -28.2239
rfingers 7.12502
rthumb 21.1069 -57.0951
lclavicle -8.53532e-015 3.97569e-016
lhumerus -44.1972 2.03434 88.2171
lradius 36.6876
lwrist -10.7007
lhand -1.73421 -27.5206
lfingers 7.12502
lthumb 23.9283 1.0085
rfemur 0 0 0
rtibia 0
rfoot 0 0
rtoes 0
lfemur -3.36908 -8.13221 -14.0055
ltibia 20.3326
lfoot -26.003 19.4572
ltoes -53.8795
35
root -0.657875 18.6848 5.65972 2.28146 -4.76763 -1.16545
lowerback -0.583718 1.32398 -0.548365
upperback -2.79865 1.76214 0.0634267
thorax -2.56104 0.893214 0.342482
lowerneck -9.28607 -2.10057 -2.29304
upperneck 26.6266 -3.35812 3.0344
head 10.0701 -1.45129 1.07922
rclavicle 1.86112e-014 -4.17448e-015
rhumerus -50.5854 -7.24505 -83.2204
rradius 43.1399
rwrist 22.0048
rhand -4.71093 -28.1679
rfingers 7.12502
rthumb 21.0711 -57.0431
lclavicle 1.86112e-014 -4.17448e-015
lhumerus -44.1661 2.0675 88.232
lradius 36.6379
lwrist -10.6996
lhand -1.7897 -27.4887
lfingers 7.12502
lthumb 23.8751 1.04732
rfemur 0 0 0
rtibia 0
rfoot 0 0
rtoes 0
lfemur -3.3696 -8.10132 -13.9972
ltibia 20.329
lfoot -25.9628 19.425
ltoes -53.8576
36
root -0.658118 18.6842 5.65952 2.28033 -4.7737 -1.16846
lowerback -0.556249 1.32081 -0.566146
upperback -2.81774 1.75783 0.0768353
thorax -2.5971 0.891752 0.365229
lowerneck -9.27556 -2.09129 -2.31594
upperneck 26.6522 -3.34102 3.03317
head 10.0773 -1.44576 1.08488
rclavicle -1.77415e-014 9.93923e-016
rhumerus -50.6108 -7.1779 -83.2193
rradius 43.1346
rwrist 21.948
rhand -4.7056 -28.2714
rfingers 7.12502
rthumb 21.0762 -57.146
lclavicle -1.77415e-014 9.93923e-016
lhumerus -44.2177 2.02687 88.2635
lradius 36.6536
lwrist -10.6573
lhand -1.85754 -27.5156
lfingers 7.12502
lthumb 23.81 1.02891
rfemur 0 0 0
rtibia 0
rfoot 0 0
rtoes 0
lfemur -3.37152 -8.09639 -13.9906
ltibia 20.3289
lfoot -25.9873 19.4127
ltoes -53.8586
37
root -0.658238 18.6842 5.65948 2.28078 -4.78484 -1.16809
lowerback -0.546987 1.32135 -0.5822
upperback -2.82265 1.75841 0.0804049
thorax -2.608 0.892491 0.377535
lowerneck -9.25618 -2.07691 -2.31364
upperneck 26.6439 -3.32282 3.03993
head 10.0699 -1.43662 1.08912
rclavicle 7.30534e-015 -7.95139e-016
rhumerus -50.6134 -7.14449 -83.2182
rradius 43.1211
rwrist 21.9276
rhand -4.72764 -28.2718
rfingers 7.12502
rthumb 21.0551 -57.1488
lclavicle 7.30534e-015 -7.95139e-016
lhumerus -44.2477 1.94845 88.2985
lradius 36.6922
lwrist -10.5771
lhand -1.89102 -27.5455
lfingers 7.12502
lthumb 23.7779 1.00321
rfemur 0 0 0
rtibia 0
rfoot 0 0
rtoes 0
lfemur -3.37076 -8.12747 -13.9947
ltibia 20.329
lfoot -26.0368 19.4388
ltoes -53.8855
